<svg width="76" height="76" viewBox="0 0 76 76" fill="none" xmlns="http://www.w3.org/2000/svg">
<path d="M23.9375 23.9375H21.5938C19.729 23.9375 17.9405 24.6783 16.6219 25.9969C15.3033 27.3155 14.5625 29.1039 14.5625 30.9688V54.4062C14.5625 56.2711 15.3033 58.0595 16.6219 59.3781C17.9405 60.6967 19.729 61.4375 21.5938 61.4375H45.0313C46.8961 61.4375 48.6845 60.6967 50.0031 59.3781C51.3217 58.0595 52.0625 56.2711 52.0625 54.4062V30.9688C52.0625 29.1039 51.3217 27.3155 50.0031 25.9969C48.6845 24.6783 46.8961 23.9375 45.0313 23.9375H42.6875M23.9375 35.6562L33.3125 45.0312M33.3125 45.0312L42.6875 35.6562M33.3125 45.0312V5.1875M52.0625 33.3125H54.4063C56.2711 33.3125 58.0595 34.0533 59.3781 35.3719C60.6967 36.6905 61.4375 38.4789 61.4375 40.3438V63.7812C61.4375 65.6461 60.6967 67.4345 59.3781 68.7531C58.0595 70.0717 56.2711 70.8125 54.4063 70.8125H30.9688C29.104 70.8125 27.3155 70.0717 25.9969 68.7531C24.6783 67.4345 23.9375 65.6461 23.9375 63.7812V61.4375" stroke="black" stroke-width="4.6875" stroke-linecap="round" stroke-linejoin="round"/>
</svg>
