<svg width="330" height="40" viewBox="0 0 330 40" fill="none" xmlns="http://www.w3.org/2000/svg">
<path d="M0.5 20C0.5 9.23045 9.23045 0.5 20 0.5H310C320.77 0.5 329.5 9.23045 329.5 20C329.5 30.7696 320.77 39.5 310 39.5H20C9.23045 39.5 0.5 30.7696 0.5 20Z" fill="white"/>
<path d="M0.5 20C0.5 9.23045 9.23045 0.5 20 0.5H310C320.77 0.5 329.5 9.23045 329.5 20C329.5 30.7696 320.77 39.5 310 39.5H20C9.23045 39.5 0.5 30.7696 0.5 20Z" stroke="black"/>
<path fill-rule="evenodd" clip-rule="evenodd" d="M108.14 20.2045C108.14 19.5664 108.083 18.9527 107.976 18.3636H99.5V21.845H104.344C104.135 22.97 103.501 23.9232 102.548 24.5614V26.8195H105.456C107.158 25.2527 108.14 22.9454 108.14 20.2045Z" fill="#4285F4"/>
<path fill-rule="evenodd" clip-rule="evenodd" d="M99.5 29C101.93 29 103.967 28.1941 105.456 26.8195L102.548 24.5614C101.742 25.1014 100.711 25.4204 99.5 25.4204C97.1559 25.4204 95.1718 23.8373 94.4641 21.71H91.4573V24.0418C92.9382 26.9832 95.9818 29 99.5 29Z" fill="#34A853"/>
<path fill-rule="evenodd" clip-rule="evenodd" d="M94.4641 21.71C94.2841 21.17 94.1818 20.5932 94.1818 20C94.1818 19.4068 94.2841 18.83 94.4641 18.29V15.9582H91.4573C90.8477 17.1732 90.5 18.5477 90.5 20C90.5 21.4523 90.8477 22.8268 91.4573 24.0418L94.4641 21.71Z" fill="#FBBC05"/>
<path fill-rule="evenodd" clip-rule="evenodd" d="M99.5 14.5795C100.821 14.5795 102.008 15.0336 102.94 15.9255L105.522 13.3441C103.963 11.8918 101.926 11 99.5 11C95.9818 11 92.9382 13.0168 91.4573 15.9582L94.4641 18.29C95.1718 16.1627 97.1559 14.5795 99.5 14.5795Z" fill="#EA4335"/>
<path d="M124.748 22.4365C124.748 22.2314 124.716 22.0492 124.652 21.8896C124.593 21.7301 124.486 21.5843 124.331 21.4521C124.176 21.32 123.957 21.1924 123.675 21.0693C123.397 20.9417 123.041 20.8118 122.608 20.6797C122.134 20.5339 121.697 20.3721 121.296 20.1943C120.899 20.012 120.553 19.8024 120.257 19.5654C119.961 19.3239 119.73 19.0482 119.566 18.7383C119.402 18.4238 119.32 18.0615 119.32 17.6514C119.32 17.2458 119.405 16.8766 119.573 16.5439C119.746 16.2113 119.99 15.9242 120.305 15.6826C120.624 15.4365 121 15.2474 121.433 15.1152C121.866 14.9785 122.344 14.9102 122.868 14.9102C123.606 14.9102 124.242 15.0469 124.775 15.3203C125.313 15.5938 125.726 15.9606 126.013 16.4209C126.304 16.8812 126.45 17.3893 126.45 17.9453H124.748C124.748 17.6172 124.677 17.3278 124.536 17.0771C124.399 16.8219 124.19 16.6214 123.907 16.4756C123.629 16.3298 123.276 16.2568 122.848 16.2568C122.442 16.2568 122.105 16.3184 121.836 16.4414C121.567 16.5645 121.367 16.7308 121.234 16.9404C121.102 17.1501 121.036 17.387 121.036 17.6514C121.036 17.8382 121.079 18.0091 121.166 18.1641C121.253 18.3145 121.385 18.4557 121.562 18.5879C121.74 18.7155 121.964 18.8363 122.232 18.9502C122.501 19.0641 122.818 19.1735 123.183 19.2783C123.734 19.4424 124.215 19.6247 124.625 19.8252C125.035 20.0212 125.377 20.2445 125.65 20.4951C125.924 20.7458 126.129 21.0306 126.266 21.3496C126.402 21.6641 126.471 22.0218 126.471 22.4229C126.471 22.8421 126.386 23.2204 126.218 23.5576C126.049 23.8903 125.808 24.1751 125.493 24.4121C125.183 24.6445 124.81 24.8245 124.372 24.9521C123.939 25.0752 123.456 25.1367 122.923 25.1367C122.444 25.1367 121.973 25.0729 121.508 24.9453C121.048 24.8177 120.628 24.624 120.25 24.3643C119.872 24.0999 119.571 23.7718 119.348 23.3799C119.124 22.9834 119.013 22.5208 119.013 21.9922H120.729C120.729 22.3158 120.783 22.5915 120.893 22.8193C121.007 23.0472 121.164 23.234 121.364 23.3799C121.565 23.5212 121.797 23.626 122.062 23.6943C122.33 23.7627 122.618 23.7969 122.923 23.7969C123.324 23.7969 123.659 23.7399 123.928 23.626C124.201 23.512 124.406 23.3525 124.543 23.1475C124.68 22.9424 124.748 22.7054 124.748 22.4365ZM129.588 17.6035V25H127.934V17.6035H129.588ZM127.824 15.6621C127.824 15.4115 127.906 15.2041 128.07 15.04C128.239 14.8714 128.471 14.7871 128.768 14.7871C129.059 14.7871 129.289 14.8714 129.458 15.04C129.627 15.2041 129.711 15.4115 129.711 15.6621C129.711 15.9082 129.627 16.1133 129.458 16.2773C129.289 16.4414 129.059 16.5234 128.768 16.5234C128.471 16.5234 128.239 16.4414 128.07 16.2773C127.906 16.1133 127.824 15.9082 127.824 15.6621ZM136.13 17.6035H137.627V24.7949C137.627 25.4603 137.486 26.0254 137.203 26.4902C136.921 26.9551 136.526 27.3083 136.021 27.5498C135.515 27.7959 134.929 27.9189 134.264 27.9189C133.981 27.9189 133.667 27.8779 133.32 27.7959C132.979 27.7139 132.646 27.5817 132.322 27.3994C132.003 27.2217 131.737 26.987 131.522 26.6953L132.295 25.7246C132.559 26.0391 132.851 26.2692 133.17 26.415C133.489 26.5609 133.824 26.6338 134.175 26.6338C134.553 26.6338 134.874 26.5632 135.139 26.4219C135.408 26.2852 135.615 26.0824 135.761 25.8135C135.907 25.5446 135.979 25.2165 135.979 24.8291V19.2783L136.13 17.6035ZM131.105 21.3838V21.2402C131.105 20.6797 131.174 20.1693 131.311 19.709C131.447 19.2441 131.643 18.8454 131.898 18.5127C132.154 18.1755 132.464 17.918 132.828 17.7402C133.193 17.5579 133.605 17.4668 134.065 17.4668C134.544 17.4668 134.952 17.5534 135.289 17.7266C135.631 17.8997 135.916 18.1481 136.144 18.4717C136.371 18.7907 136.549 19.1735 136.677 19.6201C136.809 20.0622 136.907 20.5544 136.971 21.0967V21.5547C136.911 22.0833 136.811 22.5664 136.67 23.0039C136.529 23.4414 136.342 23.8197 136.109 24.1387C135.877 24.4577 135.59 24.7038 135.248 24.877C134.911 25.0501 134.512 25.1367 134.052 25.1367C133.601 25.1367 133.193 25.0433 132.828 24.8564C132.468 24.6696 132.158 24.4076 131.898 24.0703C131.643 23.7331 131.447 23.3366 131.311 22.8809C131.174 22.4206 131.105 21.9215 131.105 21.3838ZM132.753 21.2402V21.3838C132.753 21.721 132.785 22.0355 132.849 22.3271C132.917 22.6188 133.02 22.8763 133.156 23.0996C133.298 23.3184 133.475 23.4915 133.689 23.6191C133.908 23.7422 134.166 23.8037 134.462 23.8037C134.849 23.8037 135.166 23.7217 135.412 23.5576C135.663 23.3936 135.854 23.1725 135.986 22.8945C136.123 22.612 136.219 22.2975 136.273 21.9512V20.7139C136.246 20.445 136.189 20.1943 136.103 19.9619C136.021 19.7295 135.909 19.5267 135.768 19.3535C135.626 19.1758 135.449 19.0391 135.234 18.9434C135.02 18.8431 134.767 18.793 134.476 18.793C134.179 18.793 133.922 18.8568 133.703 18.9844C133.484 19.112 133.304 19.2874 133.163 19.5107C133.026 19.734 132.924 19.9938 132.855 20.29C132.787 20.5863 132.753 20.903 132.753 21.2402ZM140.97 19.1826V25H139.322V17.6035H140.874L140.97 19.1826ZM140.676 21.0283L140.143 21.0215C140.147 20.4974 140.22 20.0166 140.361 19.5791C140.507 19.1416 140.708 18.7656 140.963 18.4512C141.223 18.1367 141.533 17.8952 141.893 17.7266C142.253 17.5534 142.654 17.4668 143.096 17.4668C143.451 17.4668 143.772 17.5169 144.06 17.6172C144.351 17.7129 144.6 17.8701 144.805 18.0889C145.014 18.3076 145.174 18.5924 145.283 18.9434C145.393 19.2897 145.447 19.7158 145.447 20.2217V25H143.793V20.2148C143.793 19.8594 143.741 19.5791 143.636 19.374C143.535 19.1644 143.387 19.0163 143.191 18.9297C143 18.8385 142.761 18.793 142.474 18.793C142.191 18.793 141.938 18.8522 141.715 18.9707C141.492 19.0892 141.302 19.251 141.147 19.4561C140.997 19.6611 140.881 19.8981 140.799 20.167C140.717 20.4359 140.676 20.723 140.676 21.0283ZM152.379 17.6035V25H150.725V17.6035H152.379ZM150.615 15.6621C150.615 15.4115 150.697 15.2041 150.861 15.04C151.03 14.8714 151.262 14.7871 151.559 14.7871C151.85 14.7871 152.08 14.8714 152.249 15.04C152.418 15.2041 152.502 15.4115 152.502 15.6621C152.502 15.9082 152.418 16.1133 152.249 16.2773C152.08 16.4414 151.85 16.5234 151.559 16.5234C151.262 16.5234 151.03 16.4414 150.861 16.2773C150.697 16.1133 150.615 15.9082 150.615 15.6621ZM155.817 19.1826V25H154.17V17.6035H155.722L155.817 19.1826ZM155.523 21.0283L154.99 21.0215C154.995 20.4974 155.068 20.0166 155.209 19.5791C155.355 19.1416 155.555 18.7656 155.811 18.4512C156.07 18.1367 156.38 17.8952 156.74 17.7266C157.1 17.5534 157.501 17.4668 157.943 17.4668C158.299 17.4668 158.62 17.5169 158.907 17.6172C159.199 17.7129 159.447 17.8701 159.652 18.0889C159.862 18.3076 160.021 18.5924 160.131 18.9434C160.24 19.2897 160.295 19.7158 160.295 20.2217V25H158.641V20.2148C158.641 19.8594 158.588 19.5791 158.483 19.374C158.383 19.1644 158.235 19.0163 158.039 18.9297C157.848 18.8385 157.608 18.793 157.321 18.793C157.039 18.793 156.786 18.8522 156.562 18.9707C156.339 19.0892 156.15 19.251 155.995 19.4561C155.845 19.6611 155.729 19.8981 155.646 20.167C155.564 20.4359 155.523 20.723 155.523 21.0283ZM167.473 23.3594L169.182 17.6035H170.234L169.947 19.3262L168.225 25H167.281L167.473 23.3594ZM166.468 17.6035L167.801 23.3867L167.91 25H166.857L164.854 17.6035H166.468ZM171.834 23.3184L173.126 17.6035H174.732L172.736 25H171.684L171.834 23.3184ZM170.412 17.6035L172.101 23.291L172.312 25H171.369L169.626 19.3193L169.339 17.6035H170.412ZM177.617 17.6035V25H175.963V17.6035H177.617ZM175.854 15.6621C175.854 15.4115 175.936 15.2041 176.1 15.04C176.268 14.8714 176.501 14.7871 176.797 14.7871C177.089 14.7871 177.319 14.8714 177.487 15.04C177.656 15.2041 177.74 15.4115 177.74 15.6621C177.74 15.9082 177.656 16.1133 177.487 16.2773C177.319 16.4414 177.089 16.5234 176.797 16.5234C176.501 16.5234 176.268 16.4414 176.1 16.2773C175.936 16.1133 175.854 15.9082 175.854 15.6621ZM182.812 17.6035V18.8066H178.643V17.6035H182.812ZM179.846 15.792H181.493V22.9561C181.493 23.1839 181.525 23.3594 181.589 23.4824C181.657 23.6009 181.751 23.6807 181.869 23.7217C181.988 23.7627 182.127 23.7832 182.286 23.7832C182.4 23.7832 182.509 23.7764 182.614 23.7627C182.719 23.749 182.803 23.7354 182.867 23.7217L182.874 24.9795C182.737 25.0205 182.578 25.057 182.396 25.0889C182.218 25.1208 182.013 25.1367 181.78 25.1367C181.402 25.1367 181.067 25.0706 180.775 24.9385C180.484 24.8018 180.256 24.5807 180.092 24.2754C179.928 23.9701 179.846 23.5645 179.846 23.0586V15.792ZM185.711 14.5V25H184.07V14.5H185.711ZM185.424 21.0283L184.891 21.0215C184.895 20.5111 184.966 20.0394 185.103 19.6064C185.244 19.1735 185.44 18.7975 185.69 18.4785C185.946 18.1549 186.251 17.9066 186.606 17.7334C186.962 17.5557 187.356 17.4668 187.789 17.4668C188.154 17.4668 188.482 17.5169 188.773 17.6172C189.07 17.7174 189.325 17.8792 189.539 18.1025C189.753 18.3213 189.915 18.6084 190.024 18.9639C190.138 19.3148 190.195 19.7432 190.195 20.249V25H188.541V20.2354C188.541 19.8799 188.489 19.5973 188.384 19.3877C188.284 19.1781 188.135 19.0277 187.939 18.9365C187.743 18.8408 187.504 18.793 187.222 18.793C186.925 18.793 186.663 18.8522 186.436 18.9707C186.212 19.0892 186.025 19.251 185.875 19.4561C185.725 19.6611 185.611 19.8981 185.533 20.167C185.46 20.4359 185.424 20.723 185.424 21.0283ZM203.156 19.9141V23.7148C203.015 23.9017 202.794 24.1068 202.493 24.3301C202.197 24.5488 201.803 24.738 201.311 24.8975C200.818 25.057 200.205 25.1367 199.472 25.1367C198.847 25.1367 198.275 25.0319 197.756 24.8223C197.236 24.6081 196.787 24.2959 196.409 23.8857C196.035 23.4756 195.746 22.9766 195.541 22.3887C195.336 21.7962 195.233 21.1217 195.233 20.3652V19.6748C195.233 18.9229 195.327 18.2529 195.514 17.665C195.705 17.0726 195.979 16.5713 196.334 16.1611C196.689 15.751 197.118 15.4411 197.619 15.2314C198.125 15.0173 198.697 14.9102 199.335 14.9102C200.151 14.9102 200.825 15.0469 201.358 15.3203C201.896 15.5892 202.311 15.9629 202.603 16.4414C202.894 16.9199 203.079 17.4668 203.156 18.082H201.475C201.42 17.7357 201.313 17.4258 201.153 17.1523C200.998 16.8789 200.775 16.6647 200.483 16.5098C200.196 16.3503 199.823 16.2705 199.362 16.2705C198.966 16.2705 198.617 16.3457 198.316 16.4961C198.016 16.6465 197.765 16.8675 197.564 17.1592C197.368 17.4508 197.22 17.8063 197.12 18.2256C197.02 18.6449 196.97 19.1234 196.97 19.6611V20.3652C196.97 20.9121 197.027 21.3975 197.141 21.8213C197.259 22.2451 197.428 22.6029 197.646 22.8945C197.87 23.1862 198.141 23.4072 198.46 23.5576C198.779 23.7035 199.139 23.7764 199.54 23.7764C199.932 23.7764 200.253 23.7445 200.504 23.6807C200.755 23.6123 200.953 23.5326 201.099 23.4414C201.249 23.3457 201.365 23.2546 201.447 23.168V21.1924H199.376V19.9141H203.156ZM204.578 21.3838V21.2266C204.578 20.6934 204.656 20.1989 204.811 19.7432C204.965 19.2829 205.189 18.8841 205.48 18.5469C205.777 18.2051 206.137 17.9408 206.561 17.7539C206.989 17.5625 207.472 17.4668 208.01 17.4668C208.552 17.4668 209.035 17.5625 209.459 17.7539C209.887 17.9408 210.25 18.2051 210.546 18.5469C210.842 18.8841 211.068 19.2829 211.223 19.7432C211.378 20.1989 211.455 20.6934 211.455 21.2266V21.3838C211.455 21.917 211.378 22.4115 211.223 22.8672C211.068 23.3229 210.842 23.7217 210.546 24.0635C210.25 24.4007 209.89 24.665 209.466 24.8564C209.042 25.0433 208.561 25.1367 208.023 25.1367C207.481 25.1367 206.996 25.0433 206.567 24.8564C206.144 24.665 205.784 24.4007 205.487 24.0635C205.191 23.7217 204.965 23.3229 204.811 22.8672C204.656 22.4115 204.578 21.917 204.578 21.3838ZM206.226 21.2266V21.3838C206.226 21.7165 206.26 22.0309 206.328 22.3271C206.396 22.6234 206.504 22.8831 206.649 23.1064C206.795 23.3298 206.982 23.5052 207.21 23.6328C207.438 23.7604 207.709 23.8242 208.023 23.8242C208.329 23.8242 208.593 23.7604 208.816 23.6328C209.044 23.5052 209.231 23.3298 209.377 23.1064C209.523 22.8831 209.63 22.6234 209.698 22.3271C209.771 22.0309 209.808 21.7165 209.808 21.3838V21.2266C209.808 20.8984 209.771 20.5885 209.698 20.2969C209.63 20.0007 209.521 19.7386 209.37 19.5107C209.224 19.2829 209.037 19.1051 208.81 18.9775C208.586 18.8454 208.32 18.7793 208.01 18.7793C207.7 18.7793 207.431 18.8454 207.203 18.9775C206.98 19.1051 206.795 19.2829 206.649 19.5107C206.504 19.7386 206.396 20.0007 206.328 20.2969C206.26 20.5885 206.226 20.8984 206.226 21.2266ZM212.521 21.3838V21.2266C212.521 20.6934 212.599 20.1989 212.754 19.7432C212.909 19.2829 213.132 18.8841 213.424 18.5469C213.72 18.2051 214.08 17.9408 214.504 17.7539C214.932 17.5625 215.415 17.4668 215.953 17.4668C216.495 17.4668 216.979 17.5625 217.402 17.7539C217.831 17.9408 218.193 18.2051 218.489 18.5469C218.785 18.8841 219.011 19.2829 219.166 19.7432C219.321 20.1989 219.398 20.6934 219.398 21.2266V21.3838C219.398 21.917 219.321 22.4115 219.166 22.8672C219.011 23.3229 218.785 23.7217 218.489 24.0635C218.193 24.4007 217.833 24.665 217.409 24.8564C216.985 25.0433 216.505 25.1367 215.967 25.1367C215.424 25.1367 214.939 25.0433 214.511 24.8564C214.087 24.665 213.727 24.4007 213.431 24.0635C213.134 23.7217 212.909 23.3229 212.754 22.8672C212.599 22.4115 212.521 21.917 212.521 21.3838ZM214.169 21.2266V21.3838C214.169 21.7165 214.203 22.0309 214.271 22.3271C214.34 22.6234 214.447 22.8831 214.593 23.1064C214.739 23.3298 214.925 23.5052 215.153 23.6328C215.381 23.7604 215.652 23.8242 215.967 23.8242C216.272 23.8242 216.536 23.7604 216.76 23.6328C216.988 23.5052 217.174 23.3298 217.32 23.1064C217.466 22.8831 217.573 22.6234 217.642 22.3271C217.715 22.0309 217.751 21.7165 217.751 21.3838V21.2266C217.751 20.8984 217.715 20.5885 217.642 20.2969C217.573 20.0007 217.464 19.7386 217.313 19.5107C217.168 19.2829 216.981 19.1051 216.753 18.9775C216.53 18.8454 216.263 18.7793 215.953 18.7793C215.643 18.7793 215.374 18.8454 215.146 18.9775C214.923 19.1051 214.739 19.2829 214.593 19.5107C214.447 19.7386 214.34 20.0007 214.271 20.2969C214.203 20.5885 214.169 20.8984 214.169 21.2266ZM225.517 17.6035H227.014V24.7949C227.014 25.4603 226.872 26.0254 226.59 26.4902C226.307 26.9551 225.913 27.3083 225.407 27.5498C224.901 27.7959 224.316 27.9189 223.65 27.9189C223.368 27.9189 223.053 27.8779 222.707 27.7959C222.365 27.7139 222.033 27.5817 221.709 27.3994C221.39 27.2217 221.123 26.987 220.909 26.6953L221.682 25.7246C221.946 26.0391 222.238 26.2692 222.557 26.415C222.876 26.5609 223.211 26.6338 223.562 26.6338C223.94 26.6338 224.261 26.5632 224.525 26.4219C224.794 26.2852 225.002 26.0824 225.147 25.8135C225.293 25.5446 225.366 25.2165 225.366 24.8291V19.2783L225.517 17.6035ZM220.492 21.3838V21.2402C220.492 20.6797 220.561 20.1693 220.697 19.709C220.834 19.2441 221.03 18.8454 221.285 18.5127C221.54 18.1755 221.85 17.918 222.215 17.7402C222.579 17.5579 222.992 17.4668 223.452 17.4668C223.931 17.4668 224.339 17.5534 224.676 17.7266C225.018 17.8997 225.302 18.1481 225.53 18.4717C225.758 18.7907 225.936 19.1735 226.063 19.6201C226.196 20.0622 226.294 20.5544 226.357 21.0967V21.5547C226.298 22.0833 226.198 22.5664 226.057 23.0039C225.915 23.4414 225.729 23.8197 225.496 24.1387C225.264 24.4577 224.977 24.7038 224.635 24.877C224.298 25.0501 223.899 25.1367 223.438 25.1367C222.987 25.1367 222.579 25.0433 222.215 24.8564C221.855 24.6696 221.545 24.4076 221.285 24.0703C221.03 23.7331 220.834 23.3366 220.697 22.8809C220.561 22.4206 220.492 21.9215 220.492 21.3838ZM222.14 21.2402V21.3838C222.14 21.721 222.172 22.0355 222.235 22.3271C222.304 22.6188 222.406 22.8763 222.543 23.0996C222.684 23.3184 222.862 23.4915 223.076 23.6191C223.295 23.7422 223.552 23.8037 223.849 23.8037C224.236 23.8037 224.553 23.7217 224.799 23.5576C225.049 23.3936 225.241 23.1725 225.373 22.8945C225.51 22.612 225.605 22.2975 225.66 21.9512V20.7139C225.633 20.445 225.576 20.1943 225.489 19.9619C225.407 19.7295 225.296 19.5267 225.154 19.3535C225.013 19.1758 224.835 19.0391 224.621 18.9434C224.407 18.8431 224.154 18.793 223.862 18.793C223.566 18.793 223.309 18.8568 223.09 18.9844C222.871 19.112 222.691 19.2874 222.55 19.5107C222.413 19.734 222.311 19.9938 222.242 20.29C222.174 20.5863 222.14 20.903 222.14 21.2402ZM230.486 14.5V25H228.832V14.5H230.486ZM235.552 25.1367C235.005 25.1367 234.51 25.0479 234.068 24.8701C233.631 24.6878 233.257 24.4349 232.947 24.1113C232.642 23.7878 232.407 23.4072 232.243 22.9697C232.079 22.5322 231.997 22.0605 231.997 21.5547V21.2812C231.997 20.7025 232.081 20.1784 232.25 19.709C232.419 19.2396 232.653 18.8385 232.954 18.5059C233.255 18.1686 233.61 17.9111 234.021 17.7334C234.431 17.5557 234.875 17.4668 235.354 17.4668C235.882 17.4668 236.345 17.5557 236.741 17.7334C237.138 17.9111 237.466 18.1618 237.726 18.4854C237.99 18.8044 238.186 19.1849 238.313 19.627C238.446 20.069 238.512 20.5566 238.512 21.0898V21.7939H232.797V20.6113H236.885V20.4814C236.876 20.1852 236.816 19.9072 236.707 19.6475C236.602 19.3877 236.44 19.1781 236.222 19.0186C236.003 18.859 235.711 18.7793 235.347 18.7793C235.073 18.7793 234.829 18.8385 234.615 18.957C234.406 19.071 234.23 19.2373 234.089 19.4561C233.948 19.6748 233.838 19.9391 233.761 20.249C233.688 20.5544 233.651 20.8984 233.651 21.2812V21.5547C233.651 21.8783 233.695 22.179 233.781 22.457C233.872 22.7305 234.005 22.9697 234.178 23.1748C234.351 23.3799 234.561 23.5417 234.807 23.6602C235.053 23.7741 235.333 23.8311 235.647 23.8311C236.044 23.8311 236.397 23.7513 236.707 23.5918C237.017 23.4323 237.286 23.2067 237.514 22.915L238.382 23.7559C238.222 23.9883 238.015 24.2116 237.76 24.4258C237.505 24.6354 237.192 24.8063 236.823 24.9385C236.459 25.0706 236.035 25.1367 235.552 25.1367Z" fill="#1F1F1F"/>
</svg>
