<svg width="509" height="31" viewBox="0 0 509 31" fill="none" xmlns="http://www.w3.org/2000/svg">
<path d="M7.11364 24L0.659091 0.727272H4.35227L8.88636 18.75H9.10227L13.8182 0.727272H17.4773L22.1932 18.7614H22.4091L26.9318 0.727272H30.6364L24.1705 24H20.6364L15.7386 6.56818H15.5568L10.6591 24H7.11364ZM39.3693 24.3523C37.6496 24.3523 36.1686 23.9848 34.9261 23.25C33.6913 22.5076 32.7367 21.4659 32.0625 20.125C31.3958 18.7765 31.0625 17.197 31.0625 15.3864C31.0625 13.5985 31.3958 12.0227 32.0625 10.6591C32.7367 9.29545 33.6761 8.23106 34.8807 7.46591C36.0928 6.70076 37.5095 6.31818 39.1307 6.31818C40.1155 6.31818 41.0701 6.48106 41.9943 6.80682C42.9186 7.13258 43.7481 7.64394 44.483 8.34091C45.2178 9.03788 45.7973 9.94318 46.2216 11.0568C46.6458 12.1629 46.858 13.5076 46.858 15.0909V16.2955H32.983V13.75H43.5284C43.5284 12.8561 43.3466 12.0644 42.983 11.375C42.6193 10.678 42.108 10.1288 41.4489 9.72727C40.7973 9.32576 40.0322 9.125 39.1534 9.125C38.1989 9.125 37.3655 9.35985 36.6534 9.82955C35.9489 10.2917 35.4034 10.8977 35.017 11.6477C34.6383 12.3902 34.4489 13.197 34.4489 14.0682V16.0568C34.4489 17.2235 34.6534 18.2159 35.0625 19.0341C35.4792 19.8523 36.0587 20.4773 36.8011 20.9091C37.5436 21.3333 38.411 21.5455 39.4034 21.5455C40.0473 21.5455 40.6345 21.4545 41.1648 21.2727C41.6951 21.0833 42.1534 20.803 42.5398 20.4318C42.9261 20.0606 43.2216 19.6023 43.4261 19.0568L46.642 19.6364C46.3845 20.5833 45.9223 21.4129 45.2557 22.125C44.5966 22.8295 43.767 23.3788 42.767 23.7727C41.7746 24.1591 40.642 24.3523 39.3693 24.3523ZM54.0256 0.727272V24H50.6278V0.727272H54.0256ZM65.9489 24.3523C64.2595 24.3523 62.8049 23.9697 61.5852 23.2045C60.3731 22.4318 59.4413 21.3674 58.7898 20.0114C58.1383 18.6553 57.8125 17.1023 57.8125 15.3523C57.8125 13.5795 58.1458 12.0152 58.8125 10.6591C59.4792 9.29545 60.4186 8.23106 61.6307 7.46591C62.8428 6.70076 64.2708 6.31818 65.9148 6.31818C67.2405 6.31818 68.4223 6.56439 69.4602 7.05682C70.4981 7.54167 71.3352 8.22348 71.9716 9.10227C72.6155 9.98106 72.9981 11.0076 73.1193 12.1818H69.8125C69.6307 11.3636 69.214 10.6591 68.5625 10.0682C67.9186 9.47727 67.0549 9.18182 65.9716 9.18182C65.0246 9.18182 64.1951 9.43182 63.483 9.93182C62.7784 10.4242 62.2292 11.1288 61.8352 12.0455C61.4413 12.9545 61.2443 14.0303 61.2443 15.2727C61.2443 16.5455 61.4375 17.6439 61.8239 18.5682C62.2102 19.4924 62.7557 20.2083 63.4602 20.7159C64.1723 21.2235 65.0095 21.4773 65.9716 21.4773C66.6155 21.4773 67.1989 21.3598 67.7216 21.125C68.2519 20.8826 68.6951 20.5379 69.0511 20.0909C69.4148 19.6439 69.6686 19.1061 69.8125 18.4773H73.1193C72.9981 19.6061 72.6307 20.6136 72.017 21.5C71.4034 22.3864 70.5814 23.0833 69.5511 23.5909C68.5284 24.0985 67.3277 24.3523 65.9489 24.3523ZM84.1051 24.3523C82.4688 24.3523 81.0407 23.9773 79.821 23.2273C78.6013 22.4773 77.6544 21.428 76.9801 20.0795C76.3059 18.7311 75.9688 17.1553 75.9688 15.3523C75.9688 13.5417 76.3059 11.9583 76.9801 10.6023C77.6544 9.24621 78.6013 8.19318 79.821 7.44318C81.0407 6.69318 82.4688 6.31818 84.1051 6.31818C85.7415 6.31818 87.1695 6.69318 88.3892 7.44318C89.6089 8.19318 90.5559 9.24621 91.2301 10.6023C91.9044 11.9583 92.2415 13.5417 92.2415 15.3523C92.2415 17.1553 91.9044 18.7311 91.2301 20.0795C90.5559 21.428 89.6089 22.4773 88.3892 23.2273C87.1695 23.9773 85.7415 24.3523 84.1051 24.3523ZM84.1165 21.5C85.1771 21.5 86.0559 21.2197 86.7528 20.6591C87.4498 20.0985 87.965 19.3523 88.2983 18.4205C88.6392 17.4886 88.8097 16.4621 88.8097 15.3409C88.8097 14.2273 88.6392 13.2045 88.2983 12.2727C87.965 11.3333 87.4498 10.5795 86.7528 10.0114C86.0559 9.44318 85.1771 9.15909 84.1165 9.15909C83.0483 9.15909 82.1619 9.44318 81.4574 10.0114C80.7604 10.5795 80.2415 11.3333 79.9006 12.2727C79.5672 13.2045 79.4006 14.2273 79.4006 15.3409C79.4006 16.4621 79.5672 17.4886 79.9006 18.4205C80.2415 19.3523 80.7604 20.0985 81.4574 20.6591C82.1619 21.2197 83.0483 21.5 84.1165 21.5ZM96.0341 24V6.54545H99.2955V9.38636H99.5114C99.875 8.42424 100.47 7.67424 101.295 7.13636C102.121 6.59091 103.11 6.31818 104.261 6.31818C105.428 6.31818 106.405 6.59091 107.193 7.13636C107.989 7.68182 108.576 8.43182 108.955 9.38636H109.136C109.553 8.45455 110.216 7.71212 111.125 7.15909C112.034 6.59848 113.117 6.31818 114.375 6.31818C115.958 6.31818 117.25 6.81439 118.25 7.80682C119.258 8.79924 119.761 10.2955 119.761 12.2955V24H116.364V12.6136C116.364 11.4318 116.042 10.5758 115.398 10.0455C114.754 9.51515 113.985 9.25 113.091 9.25C111.985 9.25 111.125 9.59091 110.511 10.2727C109.898 10.947 109.591 11.8144 109.591 12.875V24H106.205V12.3977C106.205 11.4508 105.909 10.6894 105.318 10.1136C104.727 9.53788 103.958 9.25 103.011 9.25C102.367 9.25 101.773 9.42045 101.227 9.76136C100.689 10.0947 100.254 10.5606 99.9205 11.1591C99.5947 11.7576 99.4318 12.4508 99.4318 13.2386V24H96.0341ZM131.838 24.3523C130.118 24.3523 128.637 23.9848 127.395 23.25C126.16 22.5076 125.205 21.4659 124.531 20.125C123.865 18.7765 123.531 17.197 123.531 15.3864C123.531 13.5985 123.865 12.0227 124.531 10.6591C125.205 9.29545 126.145 8.23106 127.349 7.46591C128.562 6.70076 129.978 6.31818 131.599 6.31818C132.584 6.31818 133.539 6.48106 134.463 6.80682C135.387 7.13258 136.217 7.64394 136.952 8.34091C137.687 9.03788 138.266 9.94318 138.69 11.0568C139.115 12.1629 139.327 13.5076 139.327 15.0909V16.2955H125.452V13.75H135.997C135.997 12.8561 135.815 12.0644 135.452 11.375C135.088 10.678 134.577 10.1288 133.918 9.72727C133.266 9.32576 132.501 9.125 131.622 9.125C130.668 9.125 129.834 9.35985 129.122 9.82955C128.418 10.2917 127.872 10.8977 127.486 11.6477C127.107 12.3902 126.918 13.197 126.918 14.0682V16.0568C126.918 17.2235 127.122 18.2159 127.531 19.0341C127.948 19.8523 128.527 20.4773 129.27 20.9091C130.012 21.3333 130.88 21.5455 131.872 21.5455C132.516 21.5455 133.103 21.4545 133.634 21.2727C134.164 21.0833 134.622 20.803 135.009 20.4318C135.395 20.0606 135.69 19.6023 135.895 19.0568L139.111 19.6364C138.853 20.5833 138.391 21.4129 137.724 22.125C137.065 22.8295 136.236 23.3788 135.236 23.7727C134.243 24.1591 133.111 24.3523 131.838 24.3523ZM159.713 6.54545V9.27273H150.179V6.54545H159.713ZM152.736 2.36364H156.134V18.875C156.134 19.5341 156.232 20.0303 156.429 20.3636C156.626 20.6894 156.88 20.9129 157.19 21.0341C157.509 21.1477 157.853 21.2045 158.224 21.2045C158.497 21.2045 158.736 21.1856 158.94 21.1477C159.145 21.1098 159.304 21.0795 159.418 21.0568L160.031 23.8636C159.834 23.9394 159.554 24.0152 159.19 24.0909C158.827 24.1742 158.372 24.2197 157.827 24.2273C156.933 24.2424 156.099 24.0833 155.327 23.75C154.554 23.4167 153.929 22.9015 153.452 22.2045C152.974 21.5076 152.736 20.6326 152.736 19.5795V2.36364ZM170.636 24.3523C169 24.3523 167.572 23.9773 166.352 23.2273C165.133 22.4773 164.186 21.428 163.511 20.0795C162.837 18.7311 162.5 17.1553 162.5 15.3523C162.5 13.5417 162.837 11.9583 163.511 10.6023C164.186 9.24621 165.133 8.19318 166.352 7.44318C167.572 6.69318 169 6.31818 170.636 6.31818C172.273 6.31818 173.701 6.69318 174.92 7.44318C176.14 8.19318 177.087 9.24621 177.761 10.6023C178.436 11.9583 178.773 13.5417 178.773 15.3523C178.773 17.1553 178.436 18.7311 177.761 20.0795C177.087 21.428 176.14 22.4773 174.92 23.2273C173.701 23.9773 172.273 24.3523 170.636 24.3523ZM170.648 21.5C171.708 21.5 172.587 21.2197 173.284 20.6591C173.981 20.0985 174.496 19.3523 174.83 18.4205C175.17 17.4886 175.341 16.4621 175.341 15.3409C175.341 14.2273 175.17 13.2045 174.83 12.2727C174.496 11.3333 173.981 10.5795 173.284 10.0114C172.587 9.44318 171.708 9.15909 170.648 9.15909C169.58 9.15909 168.693 9.44318 167.989 10.0114C167.292 10.5795 166.773 11.3333 166.432 12.2727C166.098 13.2045 165.932 14.2273 165.932 15.3409C165.932 16.4621 166.098 17.4886 166.432 18.4205C166.773 19.3523 167.292 20.0985 167.989 20.6591C168.693 21.2197 169.58 21.5 170.648 21.5ZM191.307 24V0.727272H199.83C201.481 0.727272 202.848 0.999999 203.932 1.54545C205.015 2.08333 205.826 2.81439 206.364 3.73864C206.902 4.6553 207.17 5.68939 207.17 6.84091C207.17 7.81061 206.992 8.62879 206.636 9.29545C206.28 9.95454 205.803 10.4848 205.205 10.8864C204.614 11.2803 203.962 11.5682 203.25 11.75V11.9773C204.023 12.0152 204.777 12.2652 205.511 12.7273C206.254 13.1818 206.867 13.8295 207.352 14.6705C207.837 15.5114 208.08 16.5341 208.08 17.7386C208.08 18.928 207.799 19.9962 207.239 20.9432C206.686 21.8826 205.83 22.6288 204.67 23.1818C203.511 23.7273 202.03 24 200.227 24H191.307ZM194.818 20.9886H199.886C201.568 20.9886 202.773 20.6629 203.5 20.0114C204.227 19.3598 204.591 18.5455 204.591 17.5682C204.591 16.8333 204.405 16.1591 204.034 15.5455C203.663 14.9318 203.133 14.4432 202.443 14.0795C201.761 13.7159 200.951 13.5341 200.011 13.5341H194.818V20.9886ZM194.818 10.7955H199.523C200.311 10.7955 201.019 10.6439 201.648 10.3409C202.284 10.0379 202.788 9.61364 203.159 9.06818C203.538 8.51515 203.727 7.86364 203.727 7.11364C203.727 6.15151 203.39 5.3447 202.716 4.69318C202.042 4.04167 201.008 3.71591 199.614 3.71591H194.818V10.7955ZM215.369 0.727272V24H211.972V0.727272H215.369ZM225.02 24.3864C223.914 24.3864 222.914 24.1818 222.02 23.7727C221.126 23.3561 220.418 22.7538 219.895 21.9659C219.38 21.178 219.122 20.2121 219.122 19.0682C219.122 18.0833 219.312 17.2727 219.69 16.6364C220.069 16 220.58 15.4962 221.224 15.125C221.868 14.7538 222.588 14.4735 223.384 14.2841C224.179 14.0947 224.99 13.9508 225.815 13.8523C226.861 13.7311 227.709 13.6326 228.361 13.5568C229.012 13.4735 229.486 13.3409 229.781 13.1591C230.077 12.9773 230.224 12.6818 230.224 12.2727V12.1932C230.224 11.2008 229.944 10.4318 229.384 9.88636C228.83 9.34091 228.005 9.06818 226.906 9.06818C225.762 9.06818 224.861 9.32197 224.202 9.82955C223.55 10.3295 223.099 10.8864 222.849 11.5L219.656 10.7727C220.035 9.71212 220.588 8.85606 221.315 8.20455C222.05 7.54545 222.895 7.06818 223.849 6.77273C224.804 6.4697 225.808 6.31818 226.861 6.31818C227.558 6.31818 228.296 6.40152 229.077 6.56818C229.865 6.72727 230.599 7.02273 231.281 7.45454C231.971 7.88636 232.535 8.50379 232.974 9.30682C233.414 10.1023 233.634 11.1364 233.634 12.4091V24H230.315V21.6136H230.179C229.959 22.053 229.63 22.4848 229.19 22.9091C228.751 23.3333 228.187 23.6856 227.497 23.9659C226.808 24.2462 225.982 24.3864 225.02 24.3864ZM225.759 21.6591C226.698 21.6591 227.501 21.4735 228.168 21.1023C228.842 20.7311 229.353 20.2462 229.702 19.6477C230.058 19.0417 230.236 18.3939 230.236 17.7045V15.4545C230.115 15.5758 229.88 15.6894 229.531 15.7955C229.19 15.8939 228.8 15.9811 228.361 16.0568C227.921 16.125 227.493 16.1894 227.077 16.25C226.66 16.303 226.312 16.3485 226.031 16.3864C225.372 16.4697 224.77 16.6098 224.224 16.8068C223.687 17.0038 223.255 17.2879 222.929 17.6591C222.611 18.0227 222.452 18.5076 222.452 19.1136C222.452 19.9545 222.762 20.5909 223.384 21.0227C224.005 21.447 224.796 21.6591 225.759 21.6591ZM245.511 24.3523C243.822 24.3523 242.367 23.9697 241.148 23.2045C239.936 22.4318 239.004 21.3674 238.352 20.0114C237.701 18.6553 237.375 17.1023 237.375 15.3523C237.375 13.5795 237.708 12.0152 238.375 10.6591C239.042 9.29545 239.981 8.23106 241.193 7.46591C242.405 6.70076 243.833 6.31818 245.477 6.31818C246.803 6.31818 247.985 6.56439 249.023 7.05682C250.061 7.54167 250.898 8.22348 251.534 9.10227C252.178 9.98106 252.561 11.0076 252.682 12.1818H249.375C249.193 11.3636 248.777 10.6591 248.125 10.0682C247.481 9.47727 246.617 9.18182 245.534 9.18182C244.587 9.18182 243.758 9.43182 243.045 9.93182C242.341 10.4242 241.792 11.1288 241.398 12.0455C241.004 12.9545 240.807 14.0303 240.807 15.2727C240.807 16.5455 241 17.6439 241.386 18.5682C241.773 19.4924 242.318 20.2083 243.023 20.7159C243.735 21.2235 244.572 21.4773 245.534 21.4773C246.178 21.4773 246.761 21.3598 247.284 21.125C247.814 20.8826 248.258 20.5379 248.614 20.0909C248.977 19.6439 249.231 19.1061 249.375 18.4773H252.682C252.561 19.6061 252.193 20.6136 251.58 21.5C250.966 22.3864 250.144 23.0833 249.114 23.5909C248.091 24.0985 246.89 24.3523 245.511 24.3523ZM259.44 18.0795L259.418 13.9318H260.009L266.963 6.54545H271.031L263.099 14.9545H262.565L259.44 18.0795ZM256.315 24V0.727272H259.713V24H256.315ZM267.338 24L261.088 15.7045L263.429 13.3295L271.509 24H267.338ZM274.401 24V0.727272H277.798V9.375H278.003C278.2 9.01136 278.484 8.59091 278.855 8.11364C279.226 7.63636 279.741 7.2197 280.401 6.86364C281.06 6.5 281.931 6.31818 283.014 6.31818C284.423 6.31818 285.681 6.67424 286.787 7.38636C287.893 8.09848 288.76 9.125 289.389 10.4659C290.026 11.8068 290.344 13.4205 290.344 15.3068C290.344 17.1932 290.029 18.8106 289.401 20.1591C288.772 21.5 287.908 22.5341 286.81 23.2614C285.711 23.9811 284.457 24.3409 283.048 24.3409C281.988 24.3409 281.12 24.1629 280.446 23.8068C279.779 23.4508 279.257 23.0341 278.878 22.5568C278.499 22.0795 278.207 21.6553 278.003 21.2841H277.719V24H274.401ZM277.73 15.2727C277.73 16.5 277.908 17.5758 278.264 18.5C278.62 19.4242 279.135 20.1477 279.81 20.6705C280.484 21.1856 281.31 21.4432 282.287 21.4432C283.302 21.4432 284.151 21.1742 284.832 20.6364C285.514 20.0909 286.029 19.3523 286.378 18.4205C286.734 17.4886 286.912 16.4394 286.912 15.2727C286.912 14.1212 286.738 13.0871 286.389 12.1705C286.048 11.2538 285.533 10.5303 284.844 10C284.162 9.4697 283.31 9.20455 282.287 9.20455C281.302 9.20455 280.469 9.45833 279.787 9.96591C279.113 10.4735 278.601 11.1818 278.253 12.0909C277.904 13 277.73 14.0606 277.73 15.2727ZM301.511 24.3523C299.875 24.3523 298.447 23.9773 297.227 23.2273C296.008 22.4773 295.061 21.428 294.386 20.0795C293.712 18.7311 293.375 17.1553 293.375 15.3523C293.375 13.5417 293.712 11.9583 294.386 10.6023C295.061 9.24621 296.008 8.19318 297.227 7.44318C298.447 6.69318 299.875 6.31818 301.511 6.31818C303.148 6.31818 304.576 6.69318 305.795 7.44318C307.015 8.19318 307.962 9.24621 308.636 10.6023C309.311 11.9583 309.648 13.5417 309.648 15.3523C309.648 17.1553 309.311 18.7311 308.636 20.0795C307.962 21.428 307.015 22.4773 305.795 23.2273C304.576 23.9773 303.148 24.3523 301.511 24.3523ZM301.523 21.5C302.583 21.5 303.462 21.2197 304.159 20.6591C304.856 20.0985 305.371 19.3523 305.705 18.4205C306.045 17.4886 306.216 16.4621 306.216 15.3409C306.216 14.2273 306.045 13.2045 305.705 12.2727C305.371 11.3333 304.856 10.5795 304.159 10.0114C303.462 9.44318 302.583 9.15909 301.523 9.15909C300.455 9.15909 299.568 9.44318 298.864 10.0114C298.167 10.5795 297.648 11.3333 297.307 12.2727C296.973 13.2045 296.807 14.2273 296.807 15.3409C296.807 16.4621 296.973 17.4886 297.307 18.4205C297.648 19.3523 298.167 20.0985 298.864 20.6591C299.568 21.2197 300.455 21.5 301.523 21.5ZM318.52 24.3864C317.414 24.3864 316.414 24.1818 315.52 23.7727C314.626 23.3561 313.918 22.7538 313.395 21.9659C312.88 21.178 312.622 20.2121 312.622 19.0682C312.622 18.0833 312.812 17.2727 313.19 16.6364C313.569 16 314.08 15.4962 314.724 15.125C315.368 14.7538 316.088 14.4735 316.884 14.2841C317.679 14.0947 318.49 13.9508 319.315 13.8523C320.361 13.7311 321.209 13.6326 321.861 13.5568C322.512 13.4735 322.986 13.3409 323.281 13.1591C323.577 12.9773 323.724 12.6818 323.724 12.2727V12.1932C323.724 11.2008 323.444 10.4318 322.884 9.88636C322.33 9.34091 321.505 9.06818 320.406 9.06818C319.262 9.06818 318.361 9.32197 317.702 9.82955C317.05 10.3295 316.599 10.8864 316.349 11.5L313.156 10.7727C313.535 9.71212 314.088 8.85606 314.815 8.20455C315.55 7.54545 316.395 7.06818 317.349 6.77273C318.304 6.4697 319.308 6.31818 320.361 6.31818C321.058 6.31818 321.796 6.40152 322.577 6.56818C323.365 6.72727 324.099 7.02273 324.781 7.45454C325.471 7.88636 326.035 8.50379 326.474 9.30682C326.914 10.1023 327.134 11.1364 327.134 12.4091V24H323.815V21.6136H323.679C323.459 22.053 323.13 22.4848 322.69 22.9091C322.251 23.3333 321.687 23.6856 320.997 23.9659C320.308 24.2462 319.482 24.3864 318.52 24.3864ZM319.259 21.6591C320.198 21.6591 321.001 21.4735 321.668 21.1023C322.342 20.7311 322.853 20.2462 323.202 19.6477C323.558 19.0417 323.736 18.3939 323.736 17.7045V15.4545C323.615 15.5758 323.38 15.6894 323.031 15.7955C322.69 15.8939 322.3 15.9811 321.861 16.0568C321.421 16.125 320.993 16.1894 320.577 16.25C320.16 16.303 319.812 16.3485 319.531 16.3864C318.872 16.4697 318.27 16.6098 317.724 16.8068C317.187 17.0038 316.755 17.2879 316.429 17.6591C316.111 18.0227 315.952 18.5076 315.952 19.1136C315.952 19.9545 316.262 20.5909 316.884 21.0227C317.505 21.447 318.296 21.6591 319.259 21.6591ZM331.659 24V6.54545H334.943V9.31818H335.125C335.443 8.37879 336.004 7.64015 336.807 7.10227C337.617 6.55682 338.534 6.28409 339.557 6.28409C339.769 6.28409 340.019 6.29167 340.307 6.30682C340.602 6.32197 340.833 6.34091 341 6.36364V9.61364C340.864 9.57576 340.621 9.53409 340.273 9.48864C339.924 9.43561 339.576 9.40909 339.227 9.40909C338.424 9.40909 337.708 9.57954 337.08 9.92045C336.458 10.2538 335.966 10.7197 335.602 11.3182C335.239 11.9091 335.057 12.5833 335.057 13.3409V24H331.659ZM349.849 24.3409C348.44 24.3409 347.183 23.9811 346.077 23.2614C344.978 22.5341 344.115 21.5 343.486 20.1591C342.865 18.8106 342.554 17.1932 342.554 15.3068C342.554 13.4205 342.868 11.8068 343.497 10.4659C344.134 9.125 345.005 8.09848 346.111 7.38636C347.217 6.67424 348.471 6.31818 349.872 6.31818C350.955 6.31818 351.827 6.5 352.486 6.86364C353.152 7.2197 353.668 7.63636 354.031 8.11364C354.402 8.59091 354.69 9.01136 354.895 9.375H355.099V0.727272H358.497V24H355.179V21.2841H354.895C354.69 21.6553 354.395 22.0795 354.009 22.5568C353.63 23.0341 353.107 23.4508 352.44 23.8068C351.774 24.1629 350.91 24.3409 349.849 24.3409ZM350.599 21.4432C351.577 21.4432 352.402 21.1856 353.077 20.6705C353.759 20.1477 354.274 19.4242 354.622 18.5C354.978 17.5758 355.156 16.5 355.156 15.2727C355.156 14.0606 354.982 13 354.634 12.0909C354.285 11.1818 353.774 10.4735 353.099 9.96591C352.425 9.45833 351.592 9.20455 350.599 9.20455C349.577 9.20455 348.724 9.4697 348.043 10C347.361 10.5303 346.846 11.2538 346.497 12.1705C346.156 13.0871 345.986 14.1212 345.986 15.2727C345.986 16.4394 346.16 17.4886 346.509 18.4205C346.857 19.3523 347.372 20.0909 348.054 20.6364C348.743 21.1742 349.592 21.4432 350.599 21.4432ZM384.781 6.84091C384.66 5.76515 384.16 4.93182 383.281 4.34091C382.402 3.74242 381.296 3.44318 379.963 3.44318C379.009 3.44318 378.183 3.5947 377.486 3.89773C376.789 4.19318 376.247 4.60227 375.861 5.125C375.482 5.64015 375.293 6.22727 375.293 6.88636C375.293 7.43939 375.421 7.91667 375.679 8.31818C375.944 8.7197 376.289 9.05682 376.713 9.32955C377.145 9.5947 377.607 9.81818 378.099 10C378.592 10.1742 379.065 10.3182 379.52 10.4318L381.793 11.0227C382.535 11.2045 383.296 11.4508 384.077 11.7614C384.857 12.072 385.58 12.4811 386.247 12.9886C386.914 13.4962 387.452 14.125 387.861 14.875C388.277 15.625 388.486 16.5227 388.486 17.5682C388.486 18.8864 388.145 20.0568 387.463 21.0795C386.789 22.1023 385.808 22.9091 384.52 23.5C383.24 24.0909 381.69 24.3864 379.872 24.3864C378.13 24.3864 376.622 24.1098 375.349 23.5568C374.077 23.0038 373.08 22.2197 372.361 21.2045C371.641 20.1818 371.243 18.9697 371.168 17.5682H374.69C374.759 18.4091 375.031 19.1098 375.509 19.6705C375.993 20.2235 376.611 20.6364 377.361 20.9091C378.118 21.1742 378.948 21.3068 379.849 21.3068C380.842 21.3068 381.724 21.1515 382.497 20.8409C383.277 20.5227 383.891 20.0833 384.338 19.5227C384.785 18.9545 385.009 18.2917 385.009 17.5341C385.009 16.8447 384.812 16.2803 384.418 15.8409C384.031 15.4015 383.505 15.0379 382.838 14.75C382.179 14.4621 381.433 14.2083 380.599 13.9886L377.849 13.2386C375.986 12.7311 374.509 11.9848 373.418 11C372.334 10.0152 371.793 8.71212 371.793 7.09091C371.793 5.75 372.156 4.57954 372.884 3.57954C373.611 2.57954 374.596 1.80303 375.838 1.25C377.08 0.689393 378.482 0.40909 380.043 0.40909C381.618 0.40909 383.009 0.685605 384.213 1.23864C385.425 1.79167 386.38 2.55303 387.077 3.52273C387.774 4.48485 388.137 5.59091 388.168 6.84091H384.781ZM399.761 24.3523C398.072 24.3523 396.617 23.9697 395.398 23.2045C394.186 22.4318 393.254 21.3674 392.602 20.0114C391.951 18.6553 391.625 17.1023 391.625 15.3523C391.625 13.5795 391.958 12.0152 392.625 10.6591C393.292 9.29545 394.231 8.23106 395.443 7.46591C396.655 6.70076 398.083 6.31818 399.727 6.31818C401.053 6.31818 402.235 6.56439 403.273 7.05682C404.311 7.54167 405.148 8.22348 405.784 9.10227C406.428 9.98106 406.811 11.0076 406.932 12.1818H403.625C403.443 11.3636 403.027 10.6591 402.375 10.0682C401.731 9.47727 400.867 9.18182 399.784 9.18182C398.837 9.18182 398.008 9.43182 397.295 9.93182C396.591 10.4242 396.042 11.1288 395.648 12.0455C395.254 12.9545 395.057 14.0303 395.057 15.2727C395.057 16.5455 395.25 17.6439 395.636 18.5682C396.023 19.4924 396.568 20.2083 397.273 20.7159C397.985 21.2235 398.822 21.4773 399.784 21.4773C400.428 21.4773 401.011 21.3598 401.534 21.125C402.064 20.8826 402.508 20.5379 402.864 20.0909C403.227 19.6439 403.481 19.1061 403.625 18.4773H406.932C406.811 19.6061 406.443 20.6136 405.83 21.5C405.216 22.3864 404.394 23.0833 403.364 23.5909C402.341 24.0985 401.14 24.3523 399.761 24.3523ZM410.565 24V6.54545H413.849V9.31818H414.031C414.349 8.37879 414.91 7.64015 415.713 7.10227C416.524 6.55682 417.44 6.28409 418.463 6.28409C418.675 6.28409 418.925 6.29167 419.213 6.30682C419.509 6.32197 419.74 6.34091 419.906 6.36364V9.61364C419.77 9.57576 419.527 9.53409 419.179 9.48864C418.83 9.43561 418.482 9.40909 418.134 9.40909C417.33 9.40909 416.615 9.57954 415.986 9.92045C415.365 10.2538 414.872 10.7197 414.509 11.3182C414.145 11.9091 413.963 12.5833 413.963 13.3409V24H410.565ZM427.77 24.3864C426.664 24.3864 425.664 24.1818 424.77 23.7727C423.876 23.3561 423.168 22.7538 422.645 21.9659C422.13 21.178 421.872 20.2121 421.872 19.0682C421.872 18.0833 422.062 17.2727 422.44 16.6364C422.819 16 423.33 15.4962 423.974 15.125C424.618 14.7538 425.338 14.4735 426.134 14.2841C426.929 14.0947 427.74 13.9508 428.565 13.8523C429.611 13.7311 430.459 13.6326 431.111 13.5568C431.762 13.4735 432.236 13.3409 432.531 13.1591C432.827 12.9773 432.974 12.6818 432.974 12.2727V12.1932C432.974 11.2008 432.694 10.4318 432.134 9.88636C431.58 9.34091 430.755 9.06818 429.656 9.06818C428.512 9.06818 427.611 9.32197 426.952 9.82955C426.3 10.3295 425.849 10.8864 425.599 11.5L422.406 10.7727C422.785 9.71212 423.338 8.85606 424.065 8.20455C424.8 7.54545 425.645 7.06818 426.599 6.77273C427.554 6.4697 428.558 6.31818 429.611 6.31818C430.308 6.31818 431.046 6.40152 431.827 6.56818C432.615 6.72727 433.349 7.02273 434.031 7.45454C434.721 7.88636 435.285 8.50379 435.724 9.30682C436.164 10.1023 436.384 11.1364 436.384 12.4091V24H433.065V21.6136H432.929C432.709 22.053 432.38 22.4848 431.94 22.9091C431.501 23.3333 430.937 23.6856 430.247 23.9659C429.558 24.2462 428.732 24.3864 427.77 24.3864ZM428.509 21.6591C429.448 21.6591 430.251 21.4735 430.918 21.1023C431.592 20.7311 432.103 20.2462 432.452 19.6477C432.808 19.0417 432.986 18.3939 432.986 17.7045V15.4545C432.865 15.5758 432.63 15.6894 432.281 15.7955C431.94 15.8939 431.55 15.9811 431.111 16.0568C430.671 16.125 430.243 16.1894 429.827 16.25C429.41 16.303 429.062 16.3485 428.781 16.3864C428.122 16.4697 427.52 16.6098 426.974 16.8068C426.437 17.0038 426.005 17.2879 425.679 17.6591C425.361 18.0227 425.202 18.5076 425.202 19.1136C425.202 19.9545 425.512 20.5909 426.134 21.0227C426.755 21.447 427.546 21.6591 428.509 21.6591ZM440.909 30.5455V6.54545H444.227V9.375H444.511C444.708 9.01136 444.992 8.59091 445.364 8.11364C445.735 7.63636 446.25 7.2197 446.909 6.86364C447.568 6.5 448.439 6.31818 449.523 6.31818C450.932 6.31818 452.189 6.67424 453.295 7.38636C454.402 8.09848 455.269 9.125 455.898 10.4659C456.534 11.8068 456.852 13.4205 456.852 15.3068C456.852 17.1932 456.538 18.8106 455.909 20.1591C455.28 21.5 454.417 22.5341 453.318 23.2614C452.22 23.9811 450.966 24.3409 449.557 24.3409C448.496 24.3409 447.629 24.1629 446.955 23.8068C446.288 23.4508 445.765 23.0341 445.386 22.5568C445.008 22.0795 444.716 21.6553 444.511 21.2841H444.307V30.5455H440.909ZM444.239 15.2727C444.239 16.5 444.417 17.5758 444.773 18.5C445.129 19.4242 445.644 20.1477 446.318 20.6705C446.992 21.1856 447.818 21.4432 448.795 21.4432C449.811 21.4432 450.659 21.1742 451.341 20.6364C452.023 20.0909 452.538 19.3523 452.886 18.4205C453.242 17.4886 453.42 16.4394 453.42 15.2727C453.42 14.1212 453.246 13.0871 452.898 12.1705C452.557 11.2538 452.042 10.5303 451.352 10C450.67 9.4697 449.818 9.20455 448.795 9.20455C447.811 9.20455 446.977 9.45833 446.295 9.96591C445.621 10.4735 445.11 11.1818 444.761 12.0909C444.413 13 444.239 14.0606 444.239 15.2727ZM460.659 30.5455V6.54545H463.977V9.375H464.261C464.458 9.01136 464.742 8.59091 465.114 8.11364C465.485 7.63636 466 7.2197 466.659 6.86364C467.318 6.5 468.189 6.31818 469.273 6.31818C470.682 6.31818 471.939 6.67424 473.045 7.38636C474.152 8.09848 475.019 9.125 475.648 10.4659C476.284 11.8068 476.602 13.4205 476.602 15.3068C476.602 17.1932 476.288 18.8106 475.659 20.1591C475.03 21.5 474.167 22.5341 473.068 23.2614C471.97 23.9811 470.716 24.3409 469.307 24.3409C468.246 24.3409 467.379 24.1629 466.705 23.8068C466.038 23.4508 465.515 23.0341 465.136 22.5568C464.758 22.0795 464.466 21.6553 464.261 21.2841H464.057V30.5455H460.659ZM463.989 15.2727C463.989 16.5 464.167 17.5758 464.523 18.5C464.879 19.4242 465.394 20.1477 466.068 20.6705C466.742 21.1856 467.568 21.4432 468.545 21.4432C469.561 21.4432 470.409 21.1742 471.091 20.6364C471.773 20.0909 472.288 19.3523 472.636 18.4205C472.992 17.4886 473.17 16.4394 473.17 15.2727C473.17 14.1212 472.996 13.0871 472.648 12.1705C472.307 11.2538 471.792 10.5303 471.102 10C470.42 9.4697 469.568 9.20455 468.545 9.20455C467.561 9.20455 466.727 9.45833 466.045 9.96591C465.371 10.4735 464.86 11.1818 464.511 12.0909C464.163 13 463.989 14.0606 463.989 15.2727ZM487.932 24.3523C486.212 24.3523 484.731 23.9848 483.489 23.25C482.254 22.5076 481.299 21.4659 480.625 20.125C479.958 18.7765 479.625 17.197 479.625 15.3864C479.625 13.5985 479.958 12.0227 480.625 10.6591C481.299 9.29545 482.239 8.23106 483.443 7.46591C484.655 6.70076 486.072 6.31818 487.693 6.31818C488.678 6.31818 489.633 6.48106 490.557 6.80682C491.481 7.13258 492.311 7.64394 493.045 8.34091C493.78 9.03788 494.36 9.94318 494.784 11.0568C495.208 12.1629 495.42 13.5076 495.42 15.0909V16.2955H481.545V13.75H492.091C492.091 12.8561 491.909 12.0644 491.545 11.375C491.182 10.678 490.67 10.1288 490.011 9.72727C489.36 9.32576 488.595 9.125 487.716 9.125C486.761 9.125 485.928 9.35985 485.216 9.82955C484.511 10.2917 483.966 10.8977 483.58 11.6477C483.201 12.3902 483.011 13.197 483.011 14.0682V16.0568C483.011 17.2235 483.216 18.2159 483.625 19.0341C484.042 19.8523 484.621 20.4773 485.364 20.9091C486.106 21.3333 486.973 21.5455 487.966 21.5455C488.61 21.5455 489.197 21.4545 489.727 21.2727C490.258 21.0833 490.716 20.803 491.102 20.4318C491.489 20.0606 491.784 19.6023 491.989 19.0568L495.205 19.6364C494.947 20.5833 494.485 21.4129 493.818 22.125C493.159 22.8295 492.33 23.3788 491.33 23.7727C490.337 24.1591 489.205 24.3523 487.932 24.3523ZM499.19 24V6.54545H502.474V9.31818H502.656C502.974 8.37879 503.535 7.64015 504.338 7.10227C505.149 6.55682 506.065 6.28409 507.088 6.28409C507.3 6.28409 507.55 6.29167 507.838 6.30682C508.134 6.32197 508.365 6.34091 508.531 6.36364V9.61364C508.395 9.57576 508.152 9.53409 507.804 9.48864C507.455 9.43561 507.107 9.40909 506.759 9.40909C505.955 9.40909 505.24 9.57954 504.611 9.92045C503.99 10.2538 503.497 10.7197 503.134 11.3182C502.77 11.9091 502.588 12.5833 502.588 13.3409V24H499.19Z" fill="black"/>
</svg>
